%TF.GenerationSoftware,KiCad,Pcbnew,(6.0.8)*%
%TF.CreationDate,2022-10-30T20:01:47-07:00*%
%TF.ProjectId,BottomEdgeDBNew,426f7474-6f6d-4456-9467-6544424e6577,rev?*%
%TF.SameCoordinates,Original*%
%TF.FileFunction,Profile,NP*%
%FSLAX46Y46*%
G04 Gerber Fmt 4.6, Leading zero omitted, Abs format (unit mm)*
G04 Created by KiCad (PCBNEW (6.0.8)) date 2022-10-30 20:01:47*
%MOMM*%
%LPD*%
G01*
G04 APERTURE LIST*
%TA.AperFunction,Profile*%
%ADD10C,0.100000*%
%TD*%
G04 APERTURE END LIST*
D10*
X152534581Y-159978181D02*
X152534581Y-159972909D01*
X152534581Y-159972909D02*
X154410206Y-159972909D01*
X154410206Y-159972909D02*
X154410206Y-153067335D01*
X154410206Y-153067335D02*
X152534581Y-153067335D01*
X152534581Y-153067335D02*
X152534581Y-153067282D01*
X152662011Y-146176478D02*
X154410206Y-146176478D01*
X154410206Y-146176478D02*
X154410206Y-139270910D01*
X154410206Y-139270910D02*
X152534581Y-139270910D01*
X152534581Y-139270910D02*
X152534581Y-139267275D01*
X152534581Y-137912020D02*
X152534581Y-133722674D01*
X152534581Y-132367410D02*
X152534581Y-132365335D01*
X152534581Y-132365335D02*
X154410206Y-132365335D01*
X154410206Y-132365335D02*
X154410206Y-125459760D01*
X154410206Y-125459760D02*
X152534581Y-125459760D01*
X152534581Y-125459760D02*
X152534581Y-125459267D01*
X152534581Y-123994350D02*
X152534581Y-122014335D01*
X152534581Y-122014335D02*
X150404582Y-122014335D01*
X149023441Y-122014335D02*
X149023383Y-122014335D01*
X149023383Y-122014335D02*
X149023383Y-120173836D01*
X149023383Y-120173836D02*
X141986000Y-120173836D01*
X141986000Y-120173836D02*
X141986000Y-121960996D01*
X134948612Y-121892972D02*
X134948612Y-120173836D01*
X134948612Y-120173836D02*
X127911223Y-120173836D01*
X127911223Y-120173836D02*
X127911223Y-122014335D01*
X127911223Y-122014335D02*
X127908461Y-122014335D01*
X126527354Y-122014335D02*
X122271036Y-122014335D01*
X120889878Y-122014335D02*
X120888816Y-122014335D01*
X120888816Y-122014335D02*
X120888816Y-120173836D01*
X120888816Y-120173836D02*
X113851433Y-120173836D01*
X113851433Y-120173836D02*
X113851433Y-121937979D01*
X112474770Y-122014335D02*
X108199703Y-122014335D01*
X106818546Y-122014335D02*
X106814044Y-122014335D01*
X106814044Y-122014335D02*
X106814044Y-120173836D01*
X106814044Y-120173836D02*
X99776655Y-120173836D01*
X99776655Y-120173836D02*
X99776655Y-122014335D01*
X99776655Y-122014335D02*
X99773899Y-122014335D01*
X98281012Y-122014335D02*
X96265463Y-122014335D01*
X96265463Y-122014335D02*
X96265463Y-124097274D01*
X96265463Y-125452571D02*
X96265463Y-125459760D01*
X96265463Y-125459760D02*
X94389833Y-125459760D01*
X94389833Y-125459760D02*
X94389833Y-132365335D01*
X94389833Y-132365335D02*
X96248931Y-132365335D01*
X96265463Y-133720433D02*
X96265463Y-137916275D01*
X96232558Y-139270910D02*
X94389833Y-139270910D01*
X94389833Y-139270910D02*
X94389833Y-146176478D01*
X94389833Y-146176478D02*
X96265463Y-146176478D01*
X96265463Y-146176478D02*
X96265463Y-146184708D01*
X96265463Y-147539967D02*
X96265463Y-151705876D01*
X96265463Y-153067335D02*
X94389833Y-153067335D01*
X94389833Y-153067335D02*
X94389833Y-159972909D01*
X94389833Y-159972909D02*
X96202478Y-159972909D01*
X96265463Y-161325290D02*
X96265463Y-165515049D01*
X96265463Y-166870347D02*
X96265463Y-166878484D01*
X96265463Y-166878484D02*
X94389833Y-166878484D01*
X94389833Y-166878484D02*
X94389833Y-173784052D01*
X94389833Y-173784052D02*
X96265463Y-173784052D01*
X96265463Y-173784052D02*
X96265463Y-173792739D01*
X152534581Y-165527479D02*
X152534581Y-161333473D01*
X152554543Y-173784052D02*
X154410206Y-173784052D01*
X154410206Y-173784052D02*
X154410206Y-166878484D01*
X154410206Y-166878484D02*
X152620386Y-166878484D01*
X150406563Y-177229483D02*
X152534581Y-177229483D01*
X152534581Y-177229483D02*
X152534581Y-175139068D01*
X141980666Y-177229483D02*
X141986000Y-177229483D01*
X141986000Y-177229483D02*
X141986000Y-179070000D01*
X141986000Y-179070000D02*
X149023383Y-179070000D01*
X149023383Y-179070000D02*
X149023383Y-177229483D01*
X149023383Y-177229483D02*
X149025424Y-177229483D01*
X136322064Y-177229483D02*
X140599500Y-177229483D01*
X127905811Y-177229483D02*
X127911223Y-177229483D01*
X127911223Y-177229483D02*
X127911223Y-179070000D01*
X127911223Y-179070000D02*
X134948612Y-179070000D01*
X134948612Y-179070000D02*
X134948612Y-177324198D01*
X122262760Y-177229483D02*
X126524882Y-177229483D01*
X113845160Y-177229483D02*
X113851433Y-177229483D01*
X113851433Y-177229483D02*
X113851433Y-179070000D01*
X113851433Y-179070000D02*
X120888816Y-179070000D01*
X120888816Y-179070000D02*
X120888816Y-177341502D01*
X108193960Y-177229483D02*
X112463994Y-177229483D01*
X99772864Y-177229483D02*
X99776655Y-177229483D01*
X99776655Y-177229483D02*
X99776655Y-179070000D01*
X99776655Y-179070000D02*
X106814044Y-179070000D01*
X106814044Y-179070000D02*
X106814044Y-177250681D01*
X96265463Y-175147998D02*
X96265463Y-177229483D01*
X96265463Y-177229483D02*
X98391708Y-177229483D01*
X152534581Y-125459267D02*
X152534581Y-125459760D01*
X152534581Y-125459760D02*
X154410206Y-125459760D01*
X154410206Y-125459760D02*
X154410206Y-132365335D01*
X154410206Y-132365335D02*
X152534581Y-132365335D01*
X152534581Y-132365335D02*
X152534581Y-132367410D01*
X152534589Y-132367318D02*
G75*
G03*
X152534581Y-133722674I-60804J-677678D01*
G01*
X152534581Y-133722674D02*
X152534581Y-137912020D01*
X152534572Y-137912116D02*
G75*
G03*
X152534581Y-139267275I-60187J-677580D01*
G01*
X152534581Y-139267275D02*
X152534581Y-139270910D01*
X152534581Y-139270910D02*
X154410206Y-139270910D01*
X154410206Y-139270910D02*
X154410206Y-146176478D01*
X154410206Y-146176478D02*
X152662011Y-146176478D01*
X152662026Y-146176425D02*
G75*
G03*
X152534581Y-147521714I-186941J-660971D01*
G01*
X152534581Y-147521714D02*
X152534581Y-151711988D01*
X152534587Y-151711923D02*
G75*
G03*
X152536515Y-153067284I-63802J-677773D01*
G01*
X152534581Y-153067282D02*
X152534581Y-153067335D01*
X152534581Y-153067335D02*
X154410206Y-153067335D01*
X154410206Y-153067335D02*
X154410206Y-159972909D01*
X154410206Y-159972909D02*
X152534581Y-159972909D01*
X152534581Y-159972909D02*
X152534581Y-159978181D01*
X152534587Y-159978119D02*
G75*
G03*
X152534581Y-161333473I-63702J-677677D01*
G01*
X152534581Y-161333473D02*
X152534581Y-165527479D01*
X152534579Y-165527500D02*
G75*
G03*
X152620386Y-166878484I-59494J-681996D01*
G01*
X152620386Y-166878484D02*
X154410206Y-166878484D01*
X154410206Y-166878484D02*
X154410206Y-173784052D01*
X154410206Y-173784052D02*
X152554543Y-173784052D01*
X152554554Y-173783967D02*
G75*
G03*
X152534581Y-175139068I-86069J-676429D01*
G01*
X152534581Y-175139068D02*
X152534581Y-177229483D01*
X152534581Y-177229483D02*
X150406563Y-177229483D01*
X150406562Y-177229483D02*
G75*
G03*
X149025424Y-177229483I-690569J36232D01*
G01*
X149025424Y-177229483D02*
X149023383Y-177229483D01*
X149023383Y-177229483D02*
X149023383Y-179070000D01*
X149023383Y-179070000D02*
X141986000Y-179070000D01*
X141986000Y-179070000D02*
X141986000Y-177229483D01*
X141986000Y-177229483D02*
X141980666Y-177229483D01*
X141980666Y-177229483D02*
G75*
G03*
X140599500Y-177229483I-690583J39445D01*
G01*
X140599500Y-177229483D02*
X136322064Y-177229483D01*
X136322053Y-177229482D02*
G75*
G03*
X134948612Y-177324198I-693468J50486D01*
G01*
X134948612Y-177324198D02*
X134948612Y-179070000D01*
X134948612Y-179070000D02*
X127911223Y-179070000D01*
X127911223Y-179070000D02*
X127911223Y-177229483D01*
X127911223Y-177229483D02*
X127905811Y-177229483D01*
X127905812Y-177229483D02*
G75*
G03*
X126524882Y-177229483I-690465J53563D01*
G01*
X126524882Y-177229483D02*
X122262760Y-177229483D01*
X122262754Y-177229483D02*
G75*
G03*
X120888816Y-177341502I-694049J30827D01*
G01*
X120888816Y-177341502D02*
X120888816Y-179070000D01*
X120888816Y-179070000D02*
X113851433Y-179070000D01*
X113851433Y-179070000D02*
X113851433Y-177229483D01*
X113851433Y-177229483D02*
X113845160Y-177229483D01*
X113845160Y-177229483D02*
G75*
G03*
X112463994Y-177229483I-690583J39445D01*
G01*
X112463994Y-177229483D02*
X108193960Y-177229483D01*
X108193967Y-177229484D02*
G75*
G03*
X106814044Y-177250681I-691012J57768D01*
G01*
X106814044Y-177250681D02*
X106814044Y-179070000D01*
X106814044Y-179070000D02*
X99776655Y-179070000D01*
X99776655Y-179070000D02*
X99776655Y-177229483D01*
X99776655Y-177229483D02*
X99772864Y-177229483D01*
X99772864Y-177229483D02*
G75*
G03*
X98391708Y-177229483I-690578J43675D01*
G01*
X98391708Y-177229483D02*
X96265463Y-177229483D01*
X96265463Y-177229483D02*
X96265463Y-175147998D01*
X96265463Y-175147993D02*
G75*
G03*
X96265463Y-173792739I70742J677627D01*
G01*
X96265463Y-173792739D02*
X96265463Y-173784052D01*
X96265463Y-173784052D02*
X94389833Y-173784052D01*
X94389833Y-173784052D02*
X94389833Y-166878484D01*
X94389833Y-166878484D02*
X96265463Y-166878484D01*
X96265463Y-166878484D02*
X96265463Y-166870347D01*
X96265463Y-166870343D02*
G75*
G03*
X96265463Y-165515049I65752J677647D01*
G01*
X96265463Y-165515049D02*
X96265463Y-161325290D01*
X96265463Y-161325289D02*
G75*
G03*
X96202478Y-159972909I67992J680823D01*
G01*
X96202478Y-159972909D02*
X94389833Y-159972909D01*
X94389833Y-159972909D02*
X94389833Y-153067335D01*
X94389833Y-153067335D02*
X96265463Y-153067335D01*
X96265463Y-153067335D02*
X96265463Y-153061131D01*
X96265462Y-153061136D02*
G75*
G03*
X96265463Y-151705876I71063J677630D01*
G01*
X96265463Y-151705876D02*
X96265463Y-147539967D01*
X96265463Y-147539964D02*
G75*
G03*
X96265463Y-146184708I70742J677628D01*
G01*
X96265463Y-146184708D02*
X96265463Y-146176478D01*
X96265463Y-146176478D02*
X94389833Y-146176478D01*
X94389833Y-146176478D02*
X94389833Y-139270910D01*
X94389833Y-139270910D02*
X96232558Y-139270910D01*
X96232557Y-139270917D02*
G75*
G03*
X96265463Y-137916275I97128J675361D01*
G01*
X96265463Y-137916275D02*
X96265463Y-133720433D01*
X96265463Y-133720436D02*
G75*
G03*
X96248931Y-132365335I66302J678460D01*
G01*
X96248931Y-132365335D02*
X94389833Y-132365335D01*
X94389833Y-132365335D02*
X94389833Y-125459760D01*
X94389833Y-125459760D02*
X96265463Y-125459760D01*
X96265463Y-125459760D02*
X96265463Y-125452571D01*
X96265462Y-125452578D02*
G75*
G03*
X96265463Y-124097274I66553J677652D01*
G01*
X96265463Y-124097274D02*
X96265463Y-122014335D01*
X96265463Y-122014335D02*
X98281012Y-122014335D01*
X98281013Y-122014335D02*
G75*
G03*
X99773899Y-122014335I746443J68163D01*
G01*
X99773899Y-122014335D02*
X99776655Y-122014335D01*
X99776655Y-122014335D02*
X99776655Y-120173836D01*
X99776655Y-120173836D02*
X106814044Y-120173836D01*
X106814044Y-120173836D02*
X106814044Y-122014335D01*
X106814044Y-122014335D02*
X106818546Y-122014335D01*
X106818545Y-122014335D02*
G75*
G03*
X108199703Y-122014335I690579J-37935D01*
G01*
X108199703Y-122014335D02*
X112474770Y-122014335D01*
X112474770Y-122014335D02*
G75*
G03*
X113851433Y-121937979I692935J-44821D01*
G01*
X113851433Y-121937979D02*
X113851433Y-120173836D01*
X113851433Y-120173836D02*
X120888816Y-120173836D01*
X120888816Y-120173836D02*
X120888816Y-122014335D01*
X120888816Y-122014335D02*
X120889878Y-122014335D01*
X120889878Y-122014335D02*
G75*
G03*
X122271036Y-122014335I690579J-37935D01*
G01*
X122271036Y-122014335D02*
X126527354Y-122014335D01*
X126527355Y-122014335D02*
G75*
G03*
X127908461Y-122014335I690553J-47198D01*
G01*
X127908461Y-122014335D02*
X127911223Y-122014335D01*
X127911223Y-122014335D02*
X127911223Y-120173836D01*
X127911223Y-120173836D02*
X134948612Y-120173836D01*
X134948612Y-120173836D02*
X134948612Y-121892972D01*
X134948613Y-121892972D02*
G75*
G03*
X136320441Y-122014335I677412J-156784D01*
G01*
X136320441Y-122014335D02*
X140606484Y-122014335D01*
X140606488Y-122014335D02*
G75*
G03*
X141986000Y-121960996I692197J-36461D01*
G01*
X141986000Y-121960996D02*
X141986000Y-120173836D01*
X141986000Y-120173836D02*
X149023383Y-120173836D01*
X149023383Y-120173836D02*
X149023383Y-122014335D01*
X149023383Y-122014335D02*
X149023441Y-122014335D01*
X149023440Y-122014335D02*
G75*
G03*
X150404582Y-122014335I690571J-45067D01*
G01*
X150404582Y-122014335D02*
X152534581Y-122014335D01*
X152534581Y-122014335D02*
X152534581Y-123994350D01*
X152534583Y-123994384D02*
G75*
G03*
X152538997Y-125459282I47702J-732312D01*
G01*
X152534581Y-125459267D02*
X152534581Y-125459760D01*
X152534581Y-125459760D02*
X154410206Y-125459760D01*
X154410206Y-125459760D02*
X154410206Y-132365335D01*
X154410206Y-132365335D02*
X152534581Y-132365335D01*
X152534581Y-132365335D02*
X152534581Y-132367410D01*
X152534589Y-132367318D02*
G75*
G03*
X152534581Y-133722674I-60804J-677678D01*
G01*
X152534581Y-133722674D02*
X152534581Y-137912020D01*
X152534572Y-137912116D02*
G75*
G03*
X152534581Y-139267275I-60187J-677580D01*
G01*
X152534581Y-139267275D02*
X152534581Y-139270910D01*
X152534581Y-139270910D02*
X154410206Y-139270910D01*
X154410206Y-139270910D02*
X154410206Y-146176478D01*
X154410206Y-146176478D02*
X152662011Y-146176478D01*
X152662026Y-146176425D02*
G75*
G03*
X152534581Y-147521714I-186941J-660971D01*
G01*
X152534581Y-147521714D02*
X152534581Y-151711988D01*
X152534587Y-151711923D02*
G75*
G03*
X152536515Y-153067284I-63802J-677773D01*
G01*
X152534581Y-153067282D02*
X152534581Y-153067335D01*
X152534581Y-153067335D02*
X154410206Y-153067335D01*
X154410206Y-153067335D02*
X154410206Y-159972909D01*
X154410206Y-159972909D02*
X152534581Y-159972909D01*
X152534581Y-159972909D02*
X152534581Y-159978181D01*
X152534587Y-159978119D02*
G75*
G03*
X152534581Y-161333473I-63702J-677677D01*
G01*
X152534581Y-161333473D02*
X152534581Y-165527479D01*
X152534579Y-165527500D02*
G75*
G03*
X152620386Y-166878484I-59494J-681996D01*
G01*
X152620386Y-166878484D02*
X154410206Y-166878484D01*
X154410206Y-166878484D02*
X154410206Y-173784052D01*
X154410206Y-173784052D02*
X152554543Y-173784052D01*
X152554554Y-173783967D02*
G75*
G03*
X152534581Y-175139068I-86069J-676429D01*
G01*
X152534581Y-175139068D02*
X152534581Y-177229483D01*
X152534581Y-177229483D02*
X150406563Y-177229483D01*
X150406562Y-177229483D02*
G75*
G03*
X149025424Y-177229483I-690569J36232D01*
G01*
X149025424Y-177229483D02*
X149023383Y-177229483D01*
X149023383Y-177229483D02*
X149023383Y-179070000D01*
X149023383Y-179070000D02*
X141986000Y-179070000D01*
X141986000Y-179070000D02*
X141986000Y-177229483D01*
X141986000Y-177229483D02*
X141980666Y-177229483D01*
X141980666Y-177229483D02*
G75*
G03*
X140599500Y-177229483I-690583J39445D01*
G01*
X140599500Y-177229483D02*
X136322064Y-177229483D01*
X136322053Y-177229482D02*
G75*
G03*
X134948612Y-177324198I-693468J50486D01*
G01*
X134948612Y-177324198D02*
X134948612Y-179070000D01*
X134948612Y-179070000D02*
X127911223Y-179070000D01*
X127911223Y-179070000D02*
X127911223Y-177229483D01*
X127911223Y-177229483D02*
X127905811Y-177229483D01*
X127905812Y-177229483D02*
G75*
G03*
X126524882Y-177229483I-690465J53563D01*
G01*
X126524882Y-177229483D02*
X122262760Y-177229483D01*
X122262754Y-177229483D02*
G75*
G03*
X120888816Y-177341502I-694049J30827D01*
G01*
X120888816Y-177341502D02*
X120888816Y-179070000D01*
X120888816Y-179070000D02*
X113851433Y-179070000D01*
X113851433Y-179070000D02*
X113851433Y-177229483D01*
X113851433Y-177229483D02*
X113845160Y-177229483D01*
X113845160Y-177229483D02*
G75*
G03*
X112463994Y-177229483I-690583J39445D01*
G01*
X112463994Y-177229483D02*
X108193960Y-177229483D01*
X108193967Y-177229484D02*
G75*
G03*
X106814044Y-177250681I-691012J57768D01*
G01*
X106814044Y-177250681D02*
X106814044Y-179070000D01*
X106814044Y-179070000D02*
X99776655Y-179070000D01*
X99776655Y-179070000D02*
X99776655Y-177229483D01*
X99776655Y-177229483D02*
X99772864Y-177229483D01*
X99772864Y-177229483D02*
G75*
G03*
X98391708Y-177229483I-690578J43675D01*
G01*
X98391708Y-177229483D02*
X96265463Y-177229483D01*
X96265463Y-177229483D02*
X96265463Y-175147998D01*
X96265463Y-175147993D02*
G75*
G03*
X96265463Y-173792739I70742J677627D01*
G01*
X96265463Y-173792739D02*
X96265463Y-173784052D01*
X96265463Y-173784052D02*
X94389833Y-173784052D01*
X94389833Y-173784052D02*
X94389833Y-166878484D01*
X94389833Y-166878484D02*
X96265463Y-166878484D01*
X96265463Y-166878484D02*
X96265463Y-166870347D01*
X96265463Y-166870343D02*
G75*
G03*
X96265463Y-165515049I65752J677647D01*
G01*
X96265463Y-165515049D02*
X96265463Y-161325290D01*
X96265463Y-161325289D02*
G75*
G03*
X96202478Y-159972909I67992J680823D01*
G01*
X96202478Y-159972909D02*
X94389833Y-159972909D01*
X94389833Y-159972909D02*
X94389833Y-153067335D01*
X94389833Y-153067335D02*
X96265463Y-153067335D01*
X96265463Y-153067335D02*
X96265463Y-153061131D01*
X96265462Y-153061136D02*
G75*
G03*
X96265463Y-151705876I71063J677630D01*
G01*
X96265463Y-151705876D02*
X96265463Y-147539967D01*
X96265463Y-147539964D02*
G75*
G03*
X96265463Y-146184708I70742J677628D01*
G01*
X96265463Y-146184708D02*
X96265463Y-146176478D01*
X96265463Y-146176478D02*
X94389833Y-146176478D01*
X94389833Y-146176478D02*
X94389833Y-139270910D01*
X94389833Y-139270910D02*
X96232558Y-139270910D01*
X96232557Y-139270917D02*
G75*
G03*
X96265463Y-137916275I97128J675361D01*
G01*
X96265463Y-137916275D02*
X96265463Y-133720433D01*
X96265463Y-133720436D02*
G75*
G03*
X96248931Y-132365335I66302J678460D01*
G01*
X96248931Y-132365335D02*
X94389833Y-132365335D01*
X94389833Y-132365335D02*
X94389833Y-125459760D01*
X94389833Y-125459760D02*
X96265463Y-125459760D01*
X96265463Y-125459760D02*
X96265463Y-125452571D01*
X96265462Y-125452578D02*
G75*
G03*
X96265463Y-124097274I66553J677652D01*
G01*
X96265463Y-124097274D02*
X96265463Y-122014335D01*
X96265463Y-122014335D02*
X98281012Y-122014335D01*
X98281013Y-122014335D02*
G75*
G03*
X99773899Y-122014335I746443J68163D01*
G01*
X99773899Y-122014335D02*
X99776655Y-122014335D01*
X99776655Y-122014335D02*
X99776655Y-120173836D01*
X99776655Y-120173836D02*
X106814044Y-120173836D01*
X106814044Y-120173836D02*
X106814044Y-122014335D01*
X106814044Y-122014335D02*
X106818546Y-122014335D01*
X106818545Y-122014335D02*
G75*
G03*
X108199703Y-122014335I690579J-37935D01*
G01*
X108199703Y-122014335D02*
X112474770Y-122014335D01*
X112474770Y-122014335D02*
G75*
G03*
X113851433Y-121937979I692935J-44821D01*
G01*
X113851433Y-121937979D02*
X113851433Y-120173836D01*
X113851433Y-120173836D02*
X120888816Y-120173836D01*
X120888816Y-120173836D02*
X120888816Y-122014335D01*
X120888816Y-122014335D02*
X120889878Y-122014335D01*
X120889878Y-122014335D02*
G75*
G03*
X122271036Y-122014335I690579J-37935D01*
G01*
X122271036Y-122014335D02*
X126527354Y-122014335D01*
X126527355Y-122014335D02*
G75*
G03*
X127908461Y-122014335I690553J-47198D01*
G01*
X127908461Y-122014335D02*
X127911223Y-122014335D01*
X127911223Y-122014335D02*
X127911223Y-120173836D01*
X127911223Y-120173836D02*
X134948612Y-120173836D01*
X134948612Y-120173836D02*
X134948612Y-121892972D01*
X134948613Y-121892972D02*
G75*
G03*
X136320441Y-122014335I677412J-156784D01*
G01*
X136320441Y-122014335D02*
X140606484Y-122014335D01*
X140606488Y-122014335D02*
G75*
G03*
X141986000Y-121960996I692197J-36461D01*
G01*
X141986000Y-121960996D02*
X141986000Y-120173836D01*
X141986000Y-120173836D02*
X149023383Y-120173836D01*
X149023383Y-120173836D02*
X149023383Y-122014335D01*
X149023383Y-122014335D02*
X149023441Y-122014335D01*
X149023440Y-122014335D02*
G75*
G03*
X150404582Y-122014335I690571J-45067D01*
G01*
X150404582Y-122014335D02*
X152534581Y-122014335D01*
X152534581Y-122014335D02*
X152534581Y-123994350D01*
X152534583Y-123994384D02*
G75*
G03*
X152538997Y-125459282I47702J-732312D01*
G01*
X152534581Y-125459267D02*
X152534581Y-125459760D01*
X152534581Y-125459760D02*
X154410206Y-125459760D01*
X154410206Y-125459760D02*
X154410206Y-132365335D01*
X154410206Y-132365335D02*
X152534581Y-132365335D01*
X152534581Y-132365335D02*
X152534581Y-132367410D01*
X152534589Y-132367318D02*
G75*
G03*
X152534581Y-133722674I-60804J-677678D01*
G01*
X152534581Y-133722674D02*
X152534581Y-137912020D01*
X152534572Y-137912116D02*
G75*
G03*
X152534581Y-139267275I-60187J-677580D01*
G01*
X152534581Y-139267275D02*
X152534581Y-139270910D01*
X152534581Y-139270910D02*
X154410206Y-139270910D01*
X154410206Y-139270910D02*
X154410206Y-146176478D01*
X154410206Y-146176478D02*
X152662011Y-146176478D01*
X152662026Y-146176425D02*
G75*
G03*
X152534581Y-147521714I-186941J-660971D01*
G01*
X152534581Y-147521714D02*
X152534581Y-151711988D01*
X152534587Y-151711923D02*
G75*
G03*
X152536515Y-153067284I-63802J-677773D01*
G01*
X152534581Y-153067282D02*
X152534581Y-153067335D01*
X152534581Y-153067335D02*
X154410206Y-153067335D01*
X154410206Y-153067335D02*
X154410206Y-159972909D01*
X154410206Y-159972909D02*
X152534581Y-159972909D01*
X152534581Y-159972909D02*
X152534581Y-159978181D01*
X152534587Y-159978119D02*
G75*
G03*
X152534581Y-161333473I-63702J-677677D01*
G01*
X152534581Y-161333473D02*
X152534581Y-165527479D01*
X152534579Y-165527500D02*
G75*
G03*
X152620386Y-166878484I-59494J-681996D01*
G01*
X152620386Y-166878484D02*
X154410206Y-166878484D01*
X154410206Y-166878484D02*
X154410206Y-173784052D01*
X154410206Y-173784052D02*
X152554543Y-173784052D01*
X152554554Y-173783967D02*
G75*
G03*
X152534581Y-175139068I-86069J-676429D01*
G01*
X152534581Y-175139068D02*
X152534581Y-177229483D01*
X152534581Y-177229483D02*
X150406563Y-177229483D01*
X150406562Y-177229483D02*
G75*
G03*
X149025424Y-177229483I-690569J36232D01*
G01*
X149025424Y-177229483D02*
X149023383Y-177229483D01*
X149023383Y-177229483D02*
X149023383Y-179070000D01*
X149023383Y-179070000D02*
X141986000Y-179070000D01*
X141986000Y-179070000D02*
X141986000Y-177229483D01*
X141986000Y-177229483D02*
X141980666Y-177229483D01*
X141980666Y-177229483D02*
G75*
G03*
X140599500Y-177229483I-690583J39445D01*
G01*
X140599500Y-177229483D02*
X136322064Y-177229483D01*
X136322053Y-177229482D02*
G75*
G03*
X134948612Y-177324198I-693468J50486D01*
G01*
X134948612Y-177324198D02*
X134948612Y-179070000D01*
X134948612Y-179070000D02*
X127911223Y-179070000D01*
X127911223Y-179070000D02*
X127911223Y-177229483D01*
X127911223Y-177229483D02*
X127905811Y-177229483D01*
X127905812Y-177229483D02*
G75*
G03*
X126524882Y-177229483I-690465J53563D01*
G01*
X126524882Y-177229483D02*
X122262760Y-177229483D01*
X122262754Y-177229483D02*
G75*
G03*
X120888816Y-177341502I-694049J30827D01*
G01*
X120888816Y-177341502D02*
X120888816Y-179070000D01*
X120888816Y-179070000D02*
X113851433Y-179070000D01*
X113851433Y-179070000D02*
X113851433Y-177229483D01*
X113851433Y-177229483D02*
X113845160Y-177229483D01*
X113845160Y-177229483D02*
G75*
G03*
X112463994Y-177229483I-690583J39445D01*
G01*
X112463994Y-177229483D02*
X108193960Y-177229483D01*
X108193967Y-177229484D02*
G75*
G03*
X106814044Y-177250681I-691012J57768D01*
G01*
X106814044Y-177250681D02*
X106814044Y-179070000D01*
X106814044Y-179070000D02*
X99776655Y-179070000D01*
X99776655Y-179070000D02*
X99776655Y-177229483D01*
X99776655Y-177229483D02*
X99772864Y-177229483D01*
X99772864Y-177229483D02*
G75*
G03*
X98391708Y-177229483I-690578J43675D01*
G01*
X98391708Y-177229483D02*
X96265463Y-177229483D01*
X96265463Y-177229483D02*
X96265463Y-175147998D01*
X96265463Y-175147993D02*
G75*
G03*
X96265463Y-173792739I70742J677627D01*
G01*
X96265463Y-173792739D02*
X96265463Y-173784052D01*
X96265463Y-173784052D02*
X94389833Y-173784052D01*
X94389833Y-173784052D02*
X94389833Y-166878484D01*
X94389833Y-166878484D02*
X96265463Y-166878484D01*
X96265463Y-166878484D02*
X96265463Y-166870347D01*
X96265463Y-166870343D02*
G75*
G03*
X96265463Y-165515049I65752J677647D01*
G01*
X96265463Y-165515049D02*
X96265463Y-161325290D01*
X96265463Y-161325289D02*
G75*
G03*
X96202478Y-159972909I67992J680823D01*
G01*
X96202478Y-159972909D02*
X94389833Y-159972909D01*
X94389833Y-159972909D02*
X94389833Y-153067335D01*
X94389833Y-153067335D02*
X96265463Y-153067335D01*
X96265463Y-153067335D02*
X96265463Y-153061131D01*
X96265462Y-153061136D02*
G75*
G03*
X96265463Y-151705876I71063J677630D01*
G01*
X96265463Y-151705876D02*
X96265463Y-147539967D01*
X96265463Y-147539964D02*
G75*
G03*
X96265463Y-146184708I70742J677628D01*
G01*
X96265463Y-146184708D02*
X96265463Y-146176478D01*
X96265463Y-146176478D02*
X94389833Y-146176478D01*
X94389833Y-146176478D02*
X94389833Y-139270910D01*
X94389833Y-139270910D02*
X96232558Y-139270910D01*
X96232557Y-139270917D02*
G75*
G03*
X96265463Y-137916275I97128J675361D01*
G01*
X96265463Y-137916275D02*
X96265463Y-133720433D01*
X96265463Y-133720436D02*
G75*
G03*
X96248931Y-132365335I66302J678460D01*
G01*
X96248931Y-132365335D02*
X94389833Y-132365335D01*
X94389833Y-132365335D02*
X94389833Y-125459760D01*
X94389833Y-125459760D02*
X96265463Y-125459760D01*
X96265463Y-125459760D02*
X96265463Y-125452571D01*
X96265462Y-125452578D02*
G75*
G03*
X96265463Y-124097274I66553J677652D01*
G01*
X96265463Y-124097274D02*
X96265463Y-122014335D01*
X96265463Y-122014335D02*
X98281012Y-122014335D01*
X98281013Y-122014335D02*
G75*
G03*
X99773899Y-122014335I746443J68163D01*
G01*
X99773899Y-122014335D02*
X99776655Y-122014335D01*
X99776655Y-122014335D02*
X99776655Y-120173836D01*
X99776655Y-120173836D02*
X106814044Y-120173836D01*
X106814044Y-120173836D02*
X106814044Y-122014335D01*
X106814044Y-122014335D02*
X106818546Y-122014335D01*
X106818545Y-122014335D02*
G75*
G03*
X108199703Y-122014335I690579J-37935D01*
G01*
X108199703Y-122014335D02*
X112474770Y-122014335D01*
X112474770Y-122014335D02*
G75*
G03*
X113851433Y-121937979I692935J-44821D01*
G01*
X113851433Y-121937979D02*
X113851433Y-120173836D01*
X113851433Y-120173836D02*
X120888816Y-120173836D01*
X120888816Y-120173836D02*
X120888816Y-122014335D01*
X120888816Y-122014335D02*
X120889878Y-122014335D01*
X120889878Y-122014335D02*
G75*
G03*
X122271036Y-122014335I690579J-37935D01*
G01*
X122271036Y-122014335D02*
X126527354Y-122014335D01*
X126527355Y-122014335D02*
G75*
G03*
X127908461Y-122014335I690553J-47198D01*
G01*
X127908461Y-122014335D02*
X127911223Y-122014335D01*
X127911223Y-122014335D02*
X127911223Y-120173836D01*
X127911223Y-120173836D02*
X134948612Y-120173836D01*
X134948612Y-120173836D02*
X134948612Y-121892972D01*
X134948613Y-121892972D02*
G75*
G03*
X136320441Y-122014335I677412J-156784D01*
G01*
X136320441Y-122014335D02*
X140606484Y-122014335D01*
X140606488Y-122014335D02*
G75*
G03*
X141986000Y-121960996I692197J-36461D01*
G01*
X141986000Y-121960996D02*
X141986000Y-120173836D01*
X141986000Y-120173836D02*
X149023383Y-120173836D01*
X149023383Y-120173836D02*
X149023383Y-122014335D01*
X149023383Y-122014335D02*
X149023441Y-122014335D01*
X149023440Y-122014335D02*
G75*
G03*
X150404582Y-122014335I690571J-45067D01*
G01*
X150404582Y-122014335D02*
X152534581Y-122014335D01*
X152534581Y-122014335D02*
X152534581Y-123994350D01*
X152534583Y-123994384D02*
G75*
G03*
X152538997Y-125459282I47702J-732312D01*
G01*
M02*
