%TF.GenerationSoftware,KiCad,Pcbnew,(6.0.8)*%
%TF.CreationDate,2022-10-30T20:00:26-07:00*%
%TF.ProjectId,TopEdgeDBNew,546f7045-6467-4654-9442-4e65772e6b69,rev?*%
%TF.SameCoordinates,Original*%
%TF.FileFunction,Profile,NP*%
%FSLAX46Y46*%
G04 Gerber Fmt 4.6, Leading zero omitted, Abs format (unit mm)*
G04 Created by KiCad (PCBNEW (6.0.8)) date 2022-10-30 20:00:26*
%MOMM*%
%LPD*%
G01*
G04 APERTURE LIST*
%TA.AperFunction,Profile*%
%ADD10C,0.100000*%
%TD*%
G04 APERTURE END LIST*
D10*
X131424102Y-154313383D02*
G75*
G03*
X131424102Y-154313383I-7554123J0D01*
G01*
X134548932Y-154157602D02*
G75*
G03*
X134548932Y-154157602I-10611574J0D01*
G01*
X137261665Y-154077816D02*
G75*
G03*
X137261665Y-154077816I-13483879J0D01*
G01*
X140054184Y-154077816D02*
G75*
G03*
X140054184Y-154077816I-16356184J0D01*
G01*
X151301890Y-164550181D02*
X151301890Y-164544909D01*
X151301890Y-164544909D02*
X153177515Y-164544909D01*
X153177515Y-164544909D02*
X153177515Y-157639335D01*
X153177515Y-157639335D02*
X151301890Y-157639335D01*
X151301890Y-157639335D02*
X151301890Y-157639282D01*
X151429320Y-150748478D02*
X153177515Y-150748478D01*
X153177515Y-150748478D02*
X153177515Y-143842910D01*
X153177515Y-143842910D02*
X151301890Y-143842910D01*
X151301890Y-143842910D02*
X151301890Y-143839275D01*
X151301890Y-142484020D02*
X151301890Y-138294674D01*
X151301890Y-136939410D02*
X151301890Y-136937335D01*
X151301890Y-136937335D02*
X153177515Y-136937335D01*
X153177515Y-136937335D02*
X153177515Y-130031760D01*
X153177515Y-130031760D02*
X151301890Y-130031760D01*
X151301890Y-130031760D02*
X151301890Y-130031267D01*
X151301890Y-128566350D02*
X151301890Y-126586335D01*
X151301890Y-126586335D02*
X149171891Y-126586335D01*
X147790750Y-126586335D02*
X147790692Y-126586335D01*
X147790692Y-126586335D02*
X147790692Y-124745836D01*
X147790692Y-124745836D02*
X140753309Y-124745836D01*
X140753309Y-124745836D02*
X140753309Y-126532996D01*
X133715921Y-126464972D02*
X133715921Y-124745836D01*
X133715921Y-124745836D02*
X126678532Y-124745836D01*
X126678532Y-124745836D02*
X126678532Y-126586335D01*
X126678532Y-126586335D02*
X126675770Y-126586335D01*
X125294663Y-126586335D02*
X121038345Y-126586335D01*
X119657187Y-126586335D02*
X119656125Y-126586335D01*
X119656125Y-126586335D02*
X119656125Y-124745836D01*
X119656125Y-124745836D02*
X112618742Y-124745836D01*
X112618742Y-124745836D02*
X112618742Y-126509979D01*
X111242079Y-126586335D02*
X106967012Y-126586335D01*
X105585855Y-126586335D02*
X105581353Y-126586335D01*
X105581353Y-126586335D02*
X105581353Y-124745836D01*
X105581353Y-124745836D02*
X98543964Y-124745836D01*
X98543964Y-124745836D02*
X98543964Y-126586335D01*
X98543964Y-126586335D02*
X98541208Y-126586335D01*
X97048321Y-126586335D02*
X95032772Y-126586335D01*
X95032772Y-126586335D02*
X95032772Y-128669274D01*
X95032772Y-130024571D02*
X95032772Y-130031760D01*
X95032772Y-130031760D02*
X93157142Y-130031760D01*
X93157142Y-130031760D02*
X93157142Y-136937335D01*
X93157142Y-136937335D02*
X95016240Y-136937335D01*
X95032772Y-138292433D02*
X95032772Y-142488275D01*
X94999867Y-143842910D02*
X93157142Y-143842910D01*
X93157142Y-143842910D02*
X93157142Y-150748478D01*
X93157142Y-150748478D02*
X95032772Y-150748478D01*
X95032772Y-150748478D02*
X95032772Y-150756708D01*
X95032772Y-152111967D02*
X95032772Y-156277876D01*
X95032772Y-157639335D02*
X93157142Y-157639335D01*
X93157142Y-157639335D02*
X93157142Y-164544909D01*
X93157142Y-164544909D02*
X94969787Y-164544909D01*
X95032772Y-165897290D02*
X95032772Y-170087049D01*
X95032772Y-171442347D02*
X95032772Y-171450484D01*
X95032772Y-171450484D02*
X93157142Y-171450484D01*
X93157142Y-171450484D02*
X93157142Y-178356052D01*
X93157142Y-178356052D02*
X95032772Y-178356052D01*
X95032772Y-178356052D02*
X95032772Y-178364739D01*
X151301890Y-170099479D02*
X151301890Y-165905473D01*
X151321852Y-178356052D02*
X153177515Y-178356052D01*
X153177515Y-178356052D02*
X153177515Y-171450484D01*
X153177515Y-171450484D02*
X151387695Y-171450484D01*
X149173872Y-181801483D02*
X151301890Y-181801483D01*
X151301890Y-181801483D02*
X151301890Y-179711068D01*
X140747975Y-181801483D02*
X140753309Y-181801483D01*
X140753309Y-181801483D02*
X140753309Y-183642000D01*
X140753309Y-183642000D02*
X147790692Y-183642000D01*
X147790692Y-183642000D02*
X147790692Y-181801483D01*
X147790692Y-181801483D02*
X147792733Y-181801483D01*
X135089373Y-181801483D02*
X139366809Y-181801483D01*
X126673120Y-181801483D02*
X126678532Y-181801483D01*
X126678532Y-181801483D02*
X126678532Y-183642000D01*
X126678532Y-183642000D02*
X133715921Y-183642000D01*
X133715921Y-183642000D02*
X133715921Y-181896198D01*
X121030069Y-181801483D02*
X125292191Y-181801483D01*
X112612469Y-181801483D02*
X112618742Y-181801483D01*
X112618742Y-181801483D02*
X112618742Y-183642000D01*
X112618742Y-183642000D02*
X119656125Y-183642000D01*
X119656125Y-183642000D02*
X119656125Y-181913502D01*
X106961269Y-181801483D02*
X111231303Y-181801483D01*
X98540173Y-181801483D02*
X98543964Y-181801483D01*
X98543964Y-181801483D02*
X98543964Y-183642000D01*
X98543964Y-183642000D02*
X105581353Y-183642000D01*
X105581353Y-183642000D02*
X105581353Y-181822681D01*
X95032772Y-179719998D02*
X95032772Y-181801483D01*
X95032772Y-181801483D02*
X97159017Y-181801483D01*
X151301890Y-130031267D02*
X151301890Y-130031760D01*
X151301890Y-130031760D02*
X153177515Y-130031760D01*
X153177515Y-130031760D02*
X153177515Y-136937335D01*
X153177515Y-136937335D02*
X151301890Y-136937335D01*
X151301890Y-136937335D02*
X151301890Y-136939410D01*
X151301898Y-136939318D02*
G75*
G03*
X151301890Y-138294674I-60804J-677678D01*
G01*
X151301890Y-138294674D02*
X151301890Y-142484020D01*
X151301881Y-142484116D02*
G75*
G03*
X151301890Y-143839275I-60187J-677580D01*
G01*
X151301890Y-143839275D02*
X151301890Y-143842910D01*
X151301890Y-143842910D02*
X153177515Y-143842910D01*
X153177515Y-143842910D02*
X153177515Y-150748478D01*
X153177515Y-150748478D02*
X151429320Y-150748478D01*
X151429335Y-150748425D02*
G75*
G03*
X151301890Y-152093714I-186941J-660971D01*
G01*
X151301890Y-152093714D02*
X151301890Y-156283988D01*
X151301896Y-156283923D02*
G75*
G03*
X151303824Y-157639284I-63802J-677773D01*
G01*
X151301890Y-157639282D02*
X151301890Y-157639335D01*
X151301890Y-157639335D02*
X153177515Y-157639335D01*
X153177515Y-157639335D02*
X153177515Y-164544909D01*
X153177515Y-164544909D02*
X151301890Y-164544909D01*
X151301890Y-164544909D02*
X151301890Y-164550181D01*
X151301896Y-164550119D02*
G75*
G03*
X151301890Y-165905473I-63702J-677677D01*
G01*
X151301890Y-165905473D02*
X151301890Y-170099479D01*
X151301888Y-170099500D02*
G75*
G03*
X151387695Y-171450484I-59494J-681996D01*
G01*
X151387695Y-171450484D02*
X153177515Y-171450484D01*
X153177515Y-171450484D02*
X153177515Y-178356052D01*
X153177515Y-178356052D02*
X151321852Y-178356052D01*
X151321863Y-178355967D02*
G75*
G03*
X151301890Y-179711068I-86069J-676429D01*
G01*
X151301890Y-179711068D02*
X151301890Y-181801483D01*
X151301890Y-181801483D02*
X149173872Y-181801483D01*
X149173871Y-181801483D02*
G75*
G03*
X147792733Y-181801483I-690569J36232D01*
G01*
X147792733Y-181801483D02*
X147790692Y-181801483D01*
X147790692Y-181801483D02*
X147790692Y-183642000D01*
X147790692Y-183642000D02*
X140753309Y-183642000D01*
X140753309Y-183642000D02*
X140753309Y-181801483D01*
X140753309Y-181801483D02*
X140747975Y-181801483D01*
X140747975Y-181801483D02*
G75*
G03*
X139366809Y-181801483I-690583J39445D01*
G01*
X139366809Y-181801483D02*
X135089373Y-181801483D01*
X135089362Y-181801482D02*
G75*
G03*
X133715921Y-181896198I-693468J50486D01*
G01*
X133715921Y-181896198D02*
X133715921Y-183642000D01*
X133715921Y-183642000D02*
X126678532Y-183642000D01*
X126678532Y-183642000D02*
X126678532Y-181801483D01*
X126678532Y-181801483D02*
X126673120Y-181801483D01*
X126673121Y-181801483D02*
G75*
G03*
X125292191Y-181801483I-690465J53563D01*
G01*
X125292191Y-181801483D02*
X121030069Y-181801483D01*
X121030063Y-181801483D02*
G75*
G03*
X119656125Y-181913502I-694049J30827D01*
G01*
X119656125Y-181913502D02*
X119656125Y-183642000D01*
X119656125Y-183642000D02*
X112618742Y-183642000D01*
X112618742Y-183642000D02*
X112618742Y-181801483D01*
X112618742Y-181801483D02*
X112612469Y-181801483D01*
X112612469Y-181801483D02*
G75*
G03*
X111231303Y-181801483I-690583J39445D01*
G01*
X111231303Y-181801483D02*
X106961269Y-181801483D01*
X106961276Y-181801484D02*
G75*
G03*
X105581353Y-181822681I-691012J57768D01*
G01*
X105581353Y-181822681D02*
X105581353Y-183642000D01*
X105581353Y-183642000D02*
X98543964Y-183642000D01*
X98543964Y-183642000D02*
X98543964Y-181801483D01*
X98543964Y-181801483D02*
X98540173Y-181801483D01*
X98540173Y-181801483D02*
G75*
G03*
X97159017Y-181801483I-690578J43675D01*
G01*
X97159017Y-181801483D02*
X95032772Y-181801483D01*
X95032772Y-181801483D02*
X95032772Y-179719998D01*
X95032772Y-179719993D02*
G75*
G03*
X95032772Y-178364739I70742J677627D01*
G01*
X95032772Y-178364739D02*
X95032772Y-178356052D01*
X95032772Y-178356052D02*
X93157142Y-178356052D01*
X93157142Y-178356052D02*
X93157142Y-171450484D01*
X93157142Y-171450484D02*
X95032772Y-171450484D01*
X95032772Y-171450484D02*
X95032772Y-171442347D01*
X95032772Y-171442343D02*
G75*
G03*
X95032772Y-170087049I65752J677647D01*
G01*
X95032772Y-170087049D02*
X95032772Y-165897290D01*
X95032772Y-165897289D02*
G75*
G03*
X94969787Y-164544909I67992J680823D01*
G01*
X94969787Y-164544909D02*
X93157142Y-164544909D01*
X93157142Y-164544909D02*
X93157142Y-157639335D01*
X93157142Y-157639335D02*
X95032772Y-157639335D01*
X95032772Y-157639335D02*
X95032772Y-157633131D01*
X95032771Y-157633136D02*
G75*
G03*
X95032772Y-156277876I71063J677630D01*
G01*
X95032772Y-156277876D02*
X95032772Y-152111967D01*
X95032772Y-152111964D02*
G75*
G03*
X95032772Y-150756708I70742J677628D01*
G01*
X95032772Y-150756708D02*
X95032772Y-150748478D01*
X95032772Y-150748478D02*
X93157142Y-150748478D01*
X93157142Y-150748478D02*
X93157142Y-143842910D01*
X93157142Y-143842910D02*
X94999867Y-143842910D01*
X94999866Y-143842917D02*
G75*
G03*
X95032772Y-142488275I97128J675361D01*
G01*
X95032772Y-142488275D02*
X95032772Y-138292433D01*
X95032772Y-138292436D02*
G75*
G03*
X95016240Y-136937335I66302J678460D01*
G01*
X95016240Y-136937335D02*
X93157142Y-136937335D01*
X93157142Y-136937335D02*
X93157142Y-130031760D01*
X93157142Y-130031760D02*
X95032772Y-130031760D01*
X95032772Y-130031760D02*
X95032772Y-130024571D01*
X95032771Y-130024578D02*
G75*
G03*
X95032772Y-128669274I66553J677652D01*
G01*
X95032772Y-128669274D02*
X95032772Y-126586335D01*
X95032772Y-126586335D02*
X97048321Y-126586335D01*
X97048322Y-126586335D02*
G75*
G03*
X98541208Y-126586335I746443J68163D01*
G01*
X98541208Y-126586335D02*
X98543964Y-126586335D01*
X98543964Y-126586335D02*
X98543964Y-124745836D01*
X98543964Y-124745836D02*
X105581353Y-124745836D01*
X105581353Y-124745836D02*
X105581353Y-126586335D01*
X105581353Y-126586335D02*
X105585855Y-126586335D01*
X105585854Y-126586335D02*
G75*
G03*
X106967012Y-126586335I690579J-37935D01*
G01*
X106967012Y-126586335D02*
X111242079Y-126586335D01*
X111242079Y-126586335D02*
G75*
G03*
X112618742Y-126509979I692935J-44821D01*
G01*
X112618742Y-126509979D02*
X112618742Y-124745836D01*
X112618742Y-124745836D02*
X119656125Y-124745836D01*
X119656125Y-124745836D02*
X119656125Y-126586335D01*
X119656125Y-126586335D02*
X119657187Y-126586335D01*
X119657187Y-126586335D02*
G75*
G03*
X121038345Y-126586335I690579J-37935D01*
G01*
X121038345Y-126586335D02*
X125294663Y-126586335D01*
X125294664Y-126586335D02*
G75*
G03*
X126675770Y-126586335I690553J-47198D01*
G01*
X126675770Y-126586335D02*
X126678532Y-126586335D01*
X126678532Y-126586335D02*
X126678532Y-124745836D01*
X126678532Y-124745836D02*
X133715921Y-124745836D01*
X133715921Y-124745836D02*
X133715921Y-126464972D01*
X133715922Y-126464972D02*
G75*
G03*
X135087750Y-126586335I677412J-156784D01*
G01*
X135087750Y-126586335D02*
X139373793Y-126586335D01*
X139373797Y-126586335D02*
G75*
G03*
X140753309Y-126532996I692197J-36461D01*
G01*
X140753309Y-126532996D02*
X140753309Y-124745836D01*
X140753309Y-124745836D02*
X147790692Y-124745836D01*
X147790692Y-124745836D02*
X147790692Y-126586335D01*
X147790692Y-126586335D02*
X147790750Y-126586335D01*
X147790749Y-126586335D02*
G75*
G03*
X149171891Y-126586335I690571J-45067D01*
G01*
X149171891Y-126586335D02*
X151301890Y-126586335D01*
X151301890Y-126586335D02*
X151301890Y-128566350D01*
X151301892Y-128566384D02*
G75*
G03*
X151306306Y-130031282I47702J-732312D01*
G01*
X151301890Y-130031267D02*
X151301890Y-130031760D01*
X151301890Y-130031760D02*
X153177515Y-130031760D01*
X153177515Y-130031760D02*
X153177515Y-136937335D01*
X153177515Y-136937335D02*
X151301890Y-136937335D01*
X151301890Y-136937335D02*
X151301890Y-136939410D01*
X151301898Y-136939318D02*
G75*
G03*
X151301890Y-138294674I-60804J-677678D01*
G01*
X151301890Y-138294674D02*
X151301890Y-142484020D01*
X151301881Y-142484116D02*
G75*
G03*
X151301890Y-143839275I-60187J-677580D01*
G01*
X151301890Y-143839275D02*
X151301890Y-143842910D01*
X151301890Y-143842910D02*
X153177515Y-143842910D01*
X153177515Y-143842910D02*
X153177515Y-150748478D01*
X153177515Y-150748478D02*
X151429320Y-150748478D01*
X151429335Y-150748425D02*
G75*
G03*
X151301890Y-152093714I-186941J-660971D01*
G01*
X151301890Y-152093714D02*
X151301890Y-156283988D01*
X151301896Y-156283923D02*
G75*
G03*
X151303824Y-157639284I-63802J-677773D01*
G01*
X151301890Y-157639282D02*
X151301890Y-157639335D01*
X151301890Y-157639335D02*
X153177515Y-157639335D01*
X153177515Y-157639335D02*
X153177515Y-164544909D01*
X153177515Y-164544909D02*
X151301890Y-164544909D01*
X151301890Y-164544909D02*
X151301890Y-164550181D01*
X151301896Y-164550119D02*
G75*
G03*
X151301890Y-165905473I-63702J-677677D01*
G01*
X151301890Y-165905473D02*
X151301890Y-170099479D01*
X151301888Y-170099500D02*
G75*
G03*
X151387695Y-171450484I-59494J-681996D01*
G01*
X151387695Y-171450484D02*
X153177515Y-171450484D01*
X153177515Y-171450484D02*
X153177515Y-178356052D01*
X153177515Y-178356052D02*
X151321852Y-178356052D01*
X151321863Y-178355967D02*
G75*
G03*
X151301890Y-179711068I-86069J-676429D01*
G01*
X151301890Y-179711068D02*
X151301890Y-181801483D01*
X151301890Y-181801483D02*
X149173872Y-181801483D01*
X149173871Y-181801483D02*
G75*
G03*
X147792733Y-181801483I-690569J36232D01*
G01*
X147792733Y-181801483D02*
X147790692Y-181801483D01*
X147790692Y-181801483D02*
X147790692Y-183642000D01*
X147790692Y-183642000D02*
X140753309Y-183642000D01*
X140753309Y-183642000D02*
X140753309Y-181801483D01*
X140753309Y-181801483D02*
X140747975Y-181801483D01*
X140747975Y-181801483D02*
G75*
G03*
X139366809Y-181801483I-690583J39445D01*
G01*
X139366809Y-181801483D02*
X135089373Y-181801483D01*
X135089362Y-181801482D02*
G75*
G03*
X133715921Y-181896198I-693468J50486D01*
G01*
X133715921Y-181896198D02*
X133715921Y-183642000D01*
X133715921Y-183642000D02*
X126678532Y-183642000D01*
X126678532Y-183642000D02*
X126678532Y-181801483D01*
X126678532Y-181801483D02*
X126673120Y-181801483D01*
X126673121Y-181801483D02*
G75*
G03*
X125292191Y-181801483I-690465J53563D01*
G01*
X125292191Y-181801483D02*
X121030069Y-181801483D01*
X121030063Y-181801483D02*
G75*
G03*
X119656125Y-181913502I-694049J30827D01*
G01*
X119656125Y-181913502D02*
X119656125Y-183642000D01*
X119656125Y-183642000D02*
X112618742Y-183642000D01*
X112618742Y-183642000D02*
X112618742Y-181801483D01*
X112618742Y-181801483D02*
X112612469Y-181801483D01*
X112612469Y-181801483D02*
G75*
G03*
X111231303Y-181801483I-690583J39445D01*
G01*
X111231303Y-181801483D02*
X106961269Y-181801483D01*
X106961276Y-181801484D02*
G75*
G03*
X105581353Y-181822681I-691012J57768D01*
G01*
X105581353Y-181822681D02*
X105581353Y-183642000D01*
X105581353Y-183642000D02*
X98543964Y-183642000D01*
X98543964Y-183642000D02*
X98543964Y-181801483D01*
X98543964Y-181801483D02*
X98540173Y-181801483D01*
X98540173Y-181801483D02*
G75*
G03*
X97159017Y-181801483I-690578J43675D01*
G01*
X97159017Y-181801483D02*
X95032772Y-181801483D01*
X95032772Y-181801483D02*
X95032772Y-179719998D01*
X95032772Y-179719993D02*
G75*
G03*
X95032772Y-178364739I70742J677627D01*
G01*
X95032772Y-178364739D02*
X95032772Y-178356052D01*
X95032772Y-178356052D02*
X93157142Y-178356052D01*
X93157142Y-178356052D02*
X93157142Y-171450484D01*
X93157142Y-171450484D02*
X95032772Y-171450484D01*
X95032772Y-171450484D02*
X95032772Y-171442347D01*
X95032772Y-171442343D02*
G75*
G03*
X95032772Y-170087049I65752J677647D01*
G01*
X95032772Y-170087049D02*
X95032772Y-165897290D01*
X95032772Y-165897289D02*
G75*
G03*
X94969787Y-164544909I67992J680823D01*
G01*
X94969787Y-164544909D02*
X93157142Y-164544909D01*
X93157142Y-164544909D02*
X93157142Y-157639335D01*
X93157142Y-157639335D02*
X95032772Y-157639335D01*
X95032772Y-157639335D02*
X95032772Y-157633131D01*
X95032771Y-157633136D02*
G75*
G03*
X95032772Y-156277876I71063J677630D01*
G01*
X95032772Y-156277876D02*
X95032772Y-152111967D01*
X95032772Y-152111964D02*
G75*
G03*
X95032772Y-150756708I70742J677628D01*
G01*
X95032772Y-150756708D02*
X95032772Y-150748478D01*
X95032772Y-150748478D02*
X93157142Y-150748478D01*
X93157142Y-150748478D02*
X93157142Y-143842910D01*
X93157142Y-143842910D02*
X94999867Y-143842910D01*
X94999866Y-143842917D02*
G75*
G03*
X95032772Y-142488275I97128J675361D01*
G01*
X95032772Y-142488275D02*
X95032772Y-138292433D01*
X95032772Y-138292436D02*
G75*
G03*
X95016240Y-136937335I66302J678460D01*
G01*
X95016240Y-136937335D02*
X93157142Y-136937335D01*
X93157142Y-136937335D02*
X93157142Y-130031760D01*
X93157142Y-130031760D02*
X95032772Y-130031760D01*
X95032772Y-130031760D02*
X95032772Y-130024571D01*
X95032771Y-130024578D02*
G75*
G03*
X95032772Y-128669274I66553J677652D01*
G01*
X95032772Y-128669274D02*
X95032772Y-126586335D01*
X95032772Y-126586335D02*
X97048321Y-126586335D01*
X97048322Y-126586335D02*
G75*
G03*
X98541208Y-126586335I746443J68163D01*
G01*
X98541208Y-126586335D02*
X98543964Y-126586335D01*
X98543964Y-126586335D02*
X98543964Y-124745836D01*
X98543964Y-124745836D02*
X105581353Y-124745836D01*
X105581353Y-124745836D02*
X105581353Y-126586335D01*
X105581353Y-126586335D02*
X105585855Y-126586335D01*
X105585854Y-126586335D02*
G75*
G03*
X106967012Y-126586335I690579J-37935D01*
G01*
X106967012Y-126586335D02*
X111242079Y-126586335D01*
X111242079Y-126586335D02*
G75*
G03*
X112618742Y-126509979I692935J-44821D01*
G01*
X112618742Y-126509979D02*
X112618742Y-124745836D01*
X112618742Y-124745836D02*
X119656125Y-124745836D01*
X119656125Y-124745836D02*
X119656125Y-126586335D01*
X119656125Y-126586335D02*
X119657187Y-126586335D01*
X119657187Y-126586335D02*
G75*
G03*
X121038345Y-126586335I690579J-37935D01*
G01*
X121038345Y-126586335D02*
X125294663Y-126586335D01*
X125294664Y-126586335D02*
G75*
G03*
X126675770Y-126586335I690553J-47198D01*
G01*
X126675770Y-126586335D02*
X126678532Y-126586335D01*
X126678532Y-126586335D02*
X126678532Y-124745836D01*
X126678532Y-124745836D02*
X133715921Y-124745836D01*
X133715921Y-124745836D02*
X133715921Y-126464972D01*
X133715922Y-126464972D02*
G75*
G03*
X135087750Y-126586335I677412J-156784D01*
G01*
X135087750Y-126586335D02*
X139373793Y-126586335D01*
X139373797Y-126586335D02*
G75*
G03*
X140753309Y-126532996I692197J-36461D01*
G01*
X140753309Y-126532996D02*
X140753309Y-124745836D01*
X140753309Y-124745836D02*
X147790692Y-124745836D01*
X147790692Y-124745836D02*
X147790692Y-126586335D01*
X147790692Y-126586335D02*
X147790750Y-126586335D01*
X147790749Y-126586335D02*
G75*
G03*
X149171891Y-126586335I690571J-45067D01*
G01*
X149171891Y-126586335D02*
X151301890Y-126586335D01*
X151301890Y-126586335D02*
X151301890Y-128566350D01*
X151301892Y-128566384D02*
G75*
G03*
X151306306Y-130031282I47702J-732312D01*
G01*
X151301890Y-130031267D02*
X151301890Y-130031760D01*
X151301890Y-130031760D02*
X153177515Y-130031760D01*
X153177515Y-130031760D02*
X153177515Y-136937335D01*
X153177515Y-136937335D02*
X151301890Y-136937335D01*
X151301890Y-136937335D02*
X151301890Y-136939410D01*
X151301898Y-136939318D02*
G75*
G03*
X151301890Y-138294674I-60804J-677678D01*
G01*
X151301890Y-138294674D02*
X151301890Y-142484020D01*
X151301881Y-142484116D02*
G75*
G03*
X151301890Y-143839275I-60187J-677580D01*
G01*
X151301890Y-143839275D02*
X151301890Y-143842910D01*
X151301890Y-143842910D02*
X153177515Y-143842910D01*
X153177515Y-143842910D02*
X153177515Y-150748478D01*
X153177515Y-150748478D02*
X151429320Y-150748478D01*
X151429335Y-150748425D02*
G75*
G03*
X151301890Y-152093714I-186941J-660971D01*
G01*
X151301890Y-152093714D02*
X151301890Y-156283988D01*
X151301896Y-156283923D02*
G75*
G03*
X151303824Y-157639284I-63802J-677773D01*
G01*
X151301890Y-157639282D02*
X151301890Y-157639335D01*
X151301890Y-157639335D02*
X153177515Y-157639335D01*
X153177515Y-157639335D02*
X153177515Y-164544909D01*
X153177515Y-164544909D02*
X151301890Y-164544909D01*
X151301890Y-164544909D02*
X151301890Y-164550181D01*
X151301896Y-164550119D02*
G75*
G03*
X151301890Y-165905473I-63702J-677677D01*
G01*
X151301890Y-165905473D02*
X151301890Y-170099479D01*
X151301888Y-170099500D02*
G75*
G03*
X151387695Y-171450484I-59494J-681996D01*
G01*
X151387695Y-171450484D02*
X153177515Y-171450484D01*
X153177515Y-171450484D02*
X153177515Y-178356052D01*
X153177515Y-178356052D02*
X151321852Y-178356052D01*
X151321863Y-178355967D02*
G75*
G03*
X151301890Y-179711068I-86069J-676429D01*
G01*
X151301890Y-179711068D02*
X151301890Y-181801483D01*
X151301890Y-181801483D02*
X149173872Y-181801483D01*
X149173871Y-181801483D02*
G75*
G03*
X147792733Y-181801483I-690569J36232D01*
G01*
X147792733Y-181801483D02*
X147790692Y-181801483D01*
X147790692Y-181801483D02*
X147790692Y-183642000D01*
X147790692Y-183642000D02*
X140753309Y-183642000D01*
X140753309Y-183642000D02*
X140753309Y-181801483D01*
X140753309Y-181801483D02*
X140747975Y-181801483D01*
X140747975Y-181801483D02*
G75*
G03*
X139366809Y-181801483I-690583J39445D01*
G01*
X139366809Y-181801483D02*
X135089373Y-181801483D01*
X135089362Y-181801482D02*
G75*
G03*
X133715921Y-181896198I-693468J50486D01*
G01*
X133715921Y-181896198D02*
X133715921Y-183642000D01*
X133715921Y-183642000D02*
X126678532Y-183642000D01*
X126678532Y-183642000D02*
X126678532Y-181801483D01*
X126678532Y-181801483D02*
X126673120Y-181801483D01*
X126673121Y-181801483D02*
G75*
G03*
X125292191Y-181801483I-690465J53563D01*
G01*
X125292191Y-181801483D02*
X121030069Y-181801483D01*
X121030063Y-181801483D02*
G75*
G03*
X119656125Y-181913502I-694049J30827D01*
G01*
X119656125Y-181913502D02*
X119656125Y-183642000D01*
X119656125Y-183642000D02*
X112618742Y-183642000D01*
X112618742Y-183642000D02*
X112618742Y-181801483D01*
X112618742Y-181801483D02*
X112612469Y-181801483D01*
X112612469Y-181801483D02*
G75*
G03*
X111231303Y-181801483I-690583J39445D01*
G01*
X111231303Y-181801483D02*
X106961269Y-181801483D01*
X106961276Y-181801484D02*
G75*
G03*
X105581353Y-181822681I-691012J57768D01*
G01*
X105581353Y-181822681D02*
X105581353Y-183642000D01*
X105581353Y-183642000D02*
X98543964Y-183642000D01*
X98543964Y-183642000D02*
X98543964Y-181801483D01*
X98543964Y-181801483D02*
X98540173Y-181801483D01*
X98540173Y-181801483D02*
G75*
G03*
X97159017Y-181801483I-690578J43675D01*
G01*
X97159017Y-181801483D02*
X95032772Y-181801483D01*
X95032772Y-181801483D02*
X95032772Y-179719998D01*
X95032772Y-179719993D02*
G75*
G03*
X95032772Y-178364739I70742J677627D01*
G01*
X95032772Y-178364739D02*
X95032772Y-178356052D01*
X95032772Y-178356052D02*
X93157142Y-178356052D01*
X93157142Y-178356052D02*
X93157142Y-171450484D01*
X93157142Y-171450484D02*
X95032772Y-171450484D01*
X95032772Y-171450484D02*
X95032772Y-171442347D01*
X95032772Y-171442343D02*
G75*
G03*
X95032772Y-170087049I65752J677647D01*
G01*
X95032772Y-170087049D02*
X95032772Y-165897290D01*
X95032772Y-165897289D02*
G75*
G03*
X94969787Y-164544909I67992J680823D01*
G01*
X94969787Y-164544909D02*
X93157142Y-164544909D01*
X93157142Y-164544909D02*
X93157142Y-157639335D01*
X93157142Y-157639335D02*
X95032772Y-157639335D01*
X95032772Y-157639335D02*
X95032772Y-157633131D01*
X95032771Y-157633136D02*
G75*
G03*
X95032772Y-156277876I71063J677630D01*
G01*
X95032772Y-156277876D02*
X95032772Y-152111967D01*
X95032772Y-152111964D02*
G75*
G03*
X95032772Y-150756708I70742J677628D01*
G01*
X95032772Y-150756708D02*
X95032772Y-150748478D01*
X95032772Y-150748478D02*
X93157142Y-150748478D01*
X93157142Y-150748478D02*
X93157142Y-143842910D01*
X93157142Y-143842910D02*
X94999867Y-143842910D01*
X94999866Y-143842917D02*
G75*
G03*
X95032772Y-142488275I97128J675361D01*
G01*
X95032772Y-142488275D02*
X95032772Y-138292433D01*
X95032772Y-138292436D02*
G75*
G03*
X95016240Y-136937335I66302J678460D01*
G01*
X95016240Y-136937335D02*
X93157142Y-136937335D01*
X93157142Y-136937335D02*
X93157142Y-130031760D01*
X93157142Y-130031760D02*
X95032772Y-130031760D01*
X95032772Y-130031760D02*
X95032772Y-130024571D01*
X95032771Y-130024578D02*
G75*
G03*
X95032772Y-128669274I66553J677652D01*
G01*
X95032772Y-128669274D02*
X95032772Y-126586335D01*
X95032772Y-126586335D02*
X97048321Y-126586335D01*
X97048322Y-126586335D02*
G75*
G03*
X98541208Y-126586335I746443J68163D01*
G01*
X98541208Y-126586335D02*
X98543964Y-126586335D01*
X98543964Y-126586335D02*
X98543964Y-124745836D01*
X98543964Y-124745836D02*
X105581353Y-124745836D01*
X105581353Y-124745836D02*
X105581353Y-126586335D01*
X105581353Y-126586335D02*
X105585855Y-126586335D01*
X105585854Y-126586335D02*
G75*
G03*
X106967012Y-126586335I690579J-37935D01*
G01*
X106967012Y-126586335D02*
X111242079Y-126586335D01*
X111242079Y-126586335D02*
G75*
G03*
X112618742Y-126509979I692935J-44821D01*
G01*
X112618742Y-126509979D02*
X112618742Y-124745836D01*
X112618742Y-124745836D02*
X119656125Y-124745836D01*
X119656125Y-124745836D02*
X119656125Y-126586335D01*
X119656125Y-126586335D02*
X119657187Y-126586335D01*
X119657187Y-126586335D02*
G75*
G03*
X121038345Y-126586335I690579J-37935D01*
G01*
X121038345Y-126586335D02*
X125294663Y-126586335D01*
X125294664Y-126586335D02*
G75*
G03*
X126675770Y-126586335I690553J-47198D01*
G01*
X126675770Y-126586335D02*
X126678532Y-126586335D01*
X126678532Y-126586335D02*
X126678532Y-124745836D01*
X126678532Y-124745836D02*
X133715921Y-124745836D01*
X133715921Y-124745836D02*
X133715921Y-126464972D01*
X133715922Y-126464972D02*
G75*
G03*
X135087750Y-126586335I677412J-156784D01*
G01*
X135087750Y-126586335D02*
X139373793Y-126586335D01*
X139373797Y-126586335D02*
G75*
G03*
X140753309Y-126532996I692197J-36461D01*
G01*
X140753309Y-126532996D02*
X140753309Y-124745836D01*
X140753309Y-124745836D02*
X147790692Y-124745836D01*
X147790692Y-124745836D02*
X147790692Y-126586335D01*
X147790692Y-126586335D02*
X147790750Y-126586335D01*
X147790749Y-126586335D02*
G75*
G03*
X149171891Y-126586335I690571J-45067D01*
G01*
X149171891Y-126586335D02*
X151301890Y-126586335D01*
X151301890Y-126586335D02*
X151301890Y-128566350D01*
X151301892Y-128566384D02*
G75*
G03*
X151306306Y-130031282I47702J-732312D01*
G01*
M02*
